<?xml version="1.0" encoding="utf-8"?>
<!-- Generator: Adobe Illustrator 18.1.0, SVG Export Plug-In . SVG Version: 6.00 Build 0)  -->
<svg version="1.1" id="Layer_1" xmlns="http://www.w3.org/2000/svg" xmlns:xlink="http://www.w3.org/1999/xlink" x="0px" y="0px"
	 viewBox="-25 19.8 1264 392.9" enable-background="new -25 19.8 1264 392.9" xml:space="preserve">
<rect x="-19.2" y="90.4" fill="none" width="602" height="542.3"/>
<g enable-background="new    ">
	<path d="M54.8,412.2c-15.2,0-26.2-2.7-32.7-8.1c-6.6-5.4-9.9-13.7-9.9-25.1c0-3,0.1-6.1,0.4-9.2c0.3-3.1,0.9-6.6,1.8-10.5
		l41.7-197.7c3.9-17.9,10.5-31.2,19.9-39.9c9.4-8.7,23.7-13,42.8-13h170.8l-12.6,60.5H140c-7.2,0-12,1.1-14.6,3.4
		c-2.5,2.2-4.6,6.8-6.1,13.7L87.6,334.2c-0.3,1.5-0.5,2.8-0.7,3.8c-0.2,1.1-0.2,2.2-0.2,3.4c0,3.3,1,5.7,3.1,7.2
		c2.1,1.5,6,2.2,11.7,2.2h138.1l-13,61.4H54.8z"/>
</g>
<rect x="-182.4" y="-200.7" fill="none" width="602" height="542.3"/>
<g enable-background="new    ">
	<path fill="#00ADE1" d="M345.7,19.8c15.2,0,26.2,2.7,32.7,8.1c6.6,5.4,9.9,13.7,9.9,25.1c0,3-0.1,6.1-0.4,9.2
		c-0.3,3.1-0.9,6.6-1.8,10.5l-41.6,197.7c-3.9,17.9-10.5,31.2-19.9,39.9c-9.4,8.7-23.7,13-42.8,13l-170.8,0.1l12.5-60.5l137.2-0.1
		c7.2,0,12-1.1,14.6-3.4c2.5-2.2,4.6-6.8,6-13.7l31.8-148c0.3-1.5,0.5-2.8,0.7-3.8c0.2-1.1,0.2-2.2,0.2-3.4c0-3.3-1-5.7-3.1-7.2
		c-2.1-1.5-6-2.2-11.7-2.2l-138.1,0.1l13-61.4L345.7,19.8z"/>
</g>
<rect x="358.2" y="103" fill="none" width="1182.4" height="438.8"/>
<g enable-background="new    ">
	<path d="M392.2,251.1c-7,0-12-1.2-15.1-3.7c-3-2.5-4.5-6.3-4.5-11.6c0-1.4,0.1-2.8,0.2-4.2c0.1-1.4,0.4-3.1,0.8-4.8l19.2-91
		c1.8-8.3,4.8-14.4,9.2-18.4c4.3-4,10.9-6,19.7-6h78.6l-5.8,27.9h-63.1c-3.3,0-5.5,0.5-6.7,1.5c-1.2,1-2.1,3.1-2.8,6.3l-14.7,68.1
		c-0.1,0.7-0.2,1.3-0.3,1.8c-0.1,0.5-0.1,1-0.1,1.5c0,1.5,0.5,2.6,1.4,3.3c1,0.7,2.8,1,5.4,1h63.6l-6,28.3H392.2z"/>
	<path d="M513.3,251.1c-7,0-12.1-1.2-15.2-3.7c-3.1-2.5-4.6-6.3-4.6-11.3c0-2.6,0.4-5.7,1.2-9.3l19.2-91c1.8-8.3,4.8-14.4,9.1-18.4
		c4.3-4,10.9-6,19.8-6h69.5c7,0,12,1.2,15.1,3.7c3,2.5,4.5,6.3,4.5,11.6c0,1.4-0.1,2.8-0.3,4.3c-0.2,1.5-0.4,3.1-0.7,4.7l-19.2,91
		c-1.8,8.3-4.9,14.4-9.2,18.4c-4.3,4-10.9,6-19.7,6H513.3z M597.3,146.7c0.1-0.7,0.2-1.3,0.3-1.9c0.1-0.5,0.1-1,0.1-1.4
		c0-3.2-2.4-4.7-7.2-4.7h-39c-2.8,0-4.7,0.6-5.9,1.7c-1.2,1.1-2.1,3.2-2.8,6.4L528,216.2c-0.3,1.4-0.4,2.3-0.4,2.7
		c0,2.9,2,4.3,6,4.3h39c3.3,0,5.6-0.5,7-1.7c1.4-1.1,2.3-2.9,2.9-5.4L597.3,146.7z"/>
	<path d="M746.1,251.1l-5.2-99.7l-50.8,99.7h-35.1l-5.4-139.7h32.2l2.3,102.4l50.6-102.4h31.4l4.3,102.1l47.7-102.1h30.7
		l-67.5,139.7H746.1z"/>
	<path d="M907.2,251.1l-1.4-21.7h-50.4l-10.7,21.7h-30.3L887,111.4h41.1l10.7,139.7H907.2z M900.4,139.5l-33.8,66.9h38.2
		L900.4,139.5z"/>
	<path d="M1037,251.1l9.5-45.6c0.1-0.7,0.2-1.3,0.3-1.8c0.1-0.5,0.1-0.9,0.1-1.3c0-2.2-1.9-3.3-5.8-3.3H996l-10.9,52h-31.4
		l21.7-102.1h31.4l-5.8,27h42.9c3,0,5.1-0.5,6.1-1.4c1-1,1.9-2.9,2.6-5.8l5-22.7c0.1-0.7,0.2-1.3,0.3-1.9c0.1-0.5,0.1-1,0.1-1.4
		c0-1.7-0.5-2.8-1.4-3.3c-1-0.5-2.6-0.8-5-0.8h-74.1l5.8-27.2h88.7c7.2,0,12.3,1.3,15.5,3.8c3.2,2.5,4.7,6.4,4.7,11.7
		c0,1.2-0.1,2.5-0.3,3.9c-0.2,1.4-0.4,2.8-0.7,4.3l-6.4,30.3c-1.5,7.2-4.3,12.2-8.3,15.2c-4,3-8.4,4.7-13.2,5.3
		c4.4,0.3,8.1,1.3,11.1,3c3,1.7,4.5,4.8,4.5,9.2c0,0.7,0,1.4,0,2.2c0,0.8-0.1,1.5-0.4,2.4l-10.1,48.5H1037z"/>
	<path d="M1145.6,251.1h-31.4l23.7-112.3h-33.8l5.8-27.4h99.3l-5.8,27.4h-34L1145.6,251.1z"/>
</g>
<polygon fill="none" points="945.1,458.9 322.8,466 322.8,271.6 945.1,264.5 "/>
<g enable-background="new    ">
	<path d="M452.8,412.7l18-84.8L419,412.7h-24.6l-16.7-84.8l-18,84.8h-26L363.3,273h33.8l18.2,97.2l60.3-97.2h32.6l-29.5,139.7H452.8
		z"/>
	<path d="M500.5,412.7l21.7-102.1h32.4l-5,22.7H601l-4.7,22.3h-51.4l-6.2,29.3h71.2l-5.8,27.9H500.5z M524.2,300.3L530,273h103.6
		l-5.8,27.2H524.2z"/>
	<path d="M627.2,412.7l21.7-101.9h31l-15.9,74.7h44c7.3,0,11.9-4.5,13.8-13.4l12.4-58.2c0.4-1.7,0.6-3.2,0.6-4.7
		c0-5.8-3-8.7-8.9-8.7h-74.9l5.8-27.4h80.7c20.4,0,30.5,8.3,30.5,24.8c0,3.4-0.4,7.1-1.2,10.9L752,377c-2.5,11.7-7.4,20.6-14.7,26.6
		c-7.3,6.1-17.1,9.1-29.5,9.1H627.2z"/>
	<path d="M767.1,412.7L796.6,273H828l-29.5,139.7H767.1z"/>
	<path d="M907,412.7l-1.4-21.7h-50.4l-10.7,21.7h-30.3L886.8,273h41.1l10.7,139.7H907z M900.2,301.1L866.4,368h38.2L900.2,301.1z"/>
</g>
</svg>
