<?xml version="1.0" encoding="utf-8"?>
<!-- Generator: Adobe Illustrator 18.1.0, SVG Export Plug-In . SVG Version: 6.00 Build 0)  -->
<svg version="1.1" baseProfile="tiny" id="Layer_1" xmlns="http://www.w3.org/2000/svg" xmlns:xlink="http://www.w3.org/1999/xlink"
	 x="0px" y="0px" viewBox="258.2 0 443.5 445.8" xml:space="preserve">
<path fill="#00ACE0" d="M667.3,2.2H292.7c-19,0-34.5,15.5-34.5,34.5v374.6c0,19,15.5,34.5,34.5,34.5h190.5h88h96.1
	c19,0,34.5-15.5,34.5-34.5V36.7C701.8,17.7,686.3,2.2,667.3,2.2z M505.8,423.4V259.8h-54.9v-40.3h54.9v-58.5
	c0-23.1,6.6-41.9,19.3-54.4c12.2-12,30-18.4,51.4-18.4c15,0,27.9,0.7,38,1.5v35.5l-22.9,0c-42.7,0-43.2,31.7-43.2,42.1v52.2h61.9
	l-5.3,40.3h-56.6v163.5H505.8z M679.4,411.3c0,6.6-5.4,12.1-12.1,12.1h-96.6V282.2h53.9l11.1-85.1h-64.9v-29.8
	c0-7.7,1.3-12.5,3.5-15.2c2.6-3,8.7-4.6,17.4-4.6l45.2,0V69.8l-10-1.3c-5.1-0.7-25.4-2.6-50.6-2.6c-27.3,0-50.5,8.6-66.9,24.8
	c-17,16.8-26,41.1-26,70.4v36.1h-54.9v85.1h54.9v141.1H292.7c-6.6,0-12.1-5.4-12.1-12.1V36.7c0-6.6,5.4-12.1,12.1-12.1h374.6
	c6.6,0,12.1,5.4,12.1,12.1V411.3z"/>
</svg>
