<?xml version="1.0" encoding="utf-8"?>
<!-- Generator: Adobe Illustrator 18.1.0, SVG Export Plug-In . SVG Version: 6.00 Build 0)  -->
<svg version="1.1" baseProfile="tiny" id="Layer_1" xmlns="http://www.w3.org/2000/svg" xmlns:xlink="http://www.w3.org/1999/xlink"
	 x="0px" y="0px" viewBox="171.9 86.2 399.5 399.8" xml:space="preserve">
<path fill="#00ACE0" d="M174.3,426.7c0,12,2.7,23.2,7.2,32.6l-0.2,0.2l0.8,0.9c7.8,15.1,20.6,25,35.1,25h308.9
	c14.3,0,27-9.7,34.8-24.5l1.2-1.4l-0.3-0.4c4.5-9.3,7.2-20.5,7.2-32.4V144.9c0-11.6-4.3-21-8.6-30.1c0,0-7.2-13.1-7.3-13.4
	c-7.8-10.9-15-15.3-27-15.3H217.2c-12,0-20.5,8.3-28.3,19.2l-6,9.4c-4.3,9.1-8.6,18.5-8.6,30.1V426.7z M535.8,115.6L371.7,340.1
	L207.5,115.6c3.2-2.1,5.7-5.9,9.7-5.9h308.9C530.1,109.7,532.6,113.5,535.8,115.6z M194.1,442c-1.7-4.6-2.7-9.8-2.7-15.3V144.9
	c0-5.1,2.3-8.8,3.7-13.2l176.5,241.4l176.5-241.4c1.4,4.4,3.8,8.1,3.8,13.2v281.8c0,5.5-1,10.6-2.6,15.2L440.9,294.4l-11.8,16.2
	l105.7,144.5c-3.1,2-6.1,5.9-9.1,5.9H217.8c-3,0-6-3.9-9.1-5.9l105.6-144.5L302,294.4L194.1,442z"/>
</svg>
