<?xml version="1.0" encoding="utf-8"?>
<!-- Generator: Adobe Illustrator 18.1.0, SVG Export Plug-In . SVG Version: 6.00 Build 0)  -->
<svg version="1.1" baseProfile="tiny" id="Layer_1" xmlns="http://www.w3.org/2000/svg" xmlns:xlink="http://www.w3.org/1999/xlink"
	 x="0px" y="0px" viewBox="0 0 20.1 20" xml:space="preserve">
<path fill="#00ACE0" d="M17.1,16.2l-1.9-2.7c-0.2-0.4-0.8-0.5-1.1-0.2l-1.4,0.9c0,0-1.3,1-3.8-2.7C6.4,7.7,7.8,6.8,7.8,6.8l1.4-0.9
	c0.4-0.2,0.5-0.8,0.2-1.1L7.6,2c0,0-0.8-0.7-2.4,0.5C3.9,4.4,4,6.5,4,6.5c0.5,2.6,1.8,4.8,2.7,6.1l0,0c0,0.1,0.1,0.2,0.2,0.2
	c0,0.1,0.1,0.2,0.2,0.2l0,0c0.9,1.3,2.4,3.3,4.6,4.8c0,0,2,0.9,4.2,0.4C17.4,17.2,17.1,16.2,17.1,16.2z"/>
<rect x="0.2" y="0.1" fill="none" stroke="#00ACE0" stroke-width="1.5" stroke-miterlimit="10" width="19.7" height="19.8"/>
</svg>
