<?xml version="1.0" encoding="utf-8"?>
<!-- Generator: Adobe Illustrator 18.1.0, SVG Export Plug-In . SVG Version: 6.00 Build 0)  -->
<svg version="1.1" baseProfile="tiny" id="Layer_1" xmlns="http://www.w3.org/2000/svg" xmlns:xlink="http://www.w3.org/1999/xlink"
	 x="0px" y="0px" viewBox="256 0 448 448" xml:space="preserve">
<g>
	<g>
		<g>
			<path fill="#00ACE0" d="M583.7,218.3c0,57.3-46.4,103.7-103.7,103.7c-57.3,0-103.7-46.4-103.7-103.7c0-13,2.5-25.3,6.8-36.7H256
				V336c0,61.9,50.1,112,112,112h224c61.9,0,112-50.1,112-112V181.6H576.9C581.2,193,583.7,205.3,583.7,218.3z"/>
			<circle fill="#00ACE0" cx="480" cy="218.3" r="62.2"/>
			<path fill="#00ACE0" d="M592,0H373.9v116.8h-24.5V1.7c-8.5,1.4-16.7,3.7-24.5,6.9v108.2h-24.5v-94C273.5,43.3,256,75.6,256,112
				v32.8h150.9c18.8-18.7,44.6-30.2,73.1-30.2s54.4,11.5,73.1,30.2H704V112C704,50.2,653.9,0,592,0z M642,105.9
				c0,6.9-5.6,12.6-12.6,12.6h-37.8c-7,0-12.6-5.6-12.6-12.6V68.2c0-6.9,5.6-12.6,12.6-12.6h37.8c6.9,0,12.6,5.6,12.6,12.6V105.9z"
				/>
		</g>
	</g>
</g>
</svg>
